<?xml version="1.0" encoding="UTF-8"?>
<svg id="Layer_1" data-name="Layer 1" xmlns="http://www.w3.org/2000/svg" viewBox="0 0 26 26">
  <defs>
    <style>
      .cls-1 {
        fill: #fff;
      }
    </style>
  </defs>
  <path class="cls-1" d="M13,0C5.82,0,0,5.82,0,13s5.82,13,13,13,13-5.82,13-13S20.18,0,13,0ZM12.1,6.69c1.28-.53,2.54.1,2.98,1.23.43,1.09-.03,2.5-1.22,2.95-1.11.41-2.33.05-2.87-1.08-.5-1.03-.22-2.54,1.11-3.09ZM13,19.5c-2.45,0-4.44-1.99-4.44-4.44,0-.03,0-.06,0-.09,0-.38.06-.76.16-1.11.43-1.27,1.63-2.18,3.05-2.18h2.43c1.42,0,2.62.92,3.05,2.18.1.35.16.73.16,1.11,0,.03,0,.06,0,.09,0,2.45-1.98,4.44-4.44,4.44Z"/>
</svg>