<?xml version="1.0" encoding="UTF-8"?>
<svg id="Layer_1" data-name="Layer 1" xmlns="http://www.w3.org/2000/svg" viewBox="0 0 26 26">
  <defs>
    <style>
      .cls-1 {
        fill: #fff;
      }
    </style>
  </defs>
  <path class="cls-1" d="M13,0C5.82,0,0,5.82,0,13s5.82,13,13,13,13-5.82,13-13S20.18,0,13,0ZM14.36,19.06c-4.75-2.09-9.65-8.47-6.99-11.9.48-.63,1.74-.93,2.27-.32.88,1,1.44,2.03,2.06,3.23l-1.36,1.37c.59,1.8,2.53,3.94,3.8,4.13.4.06,1.12-.6,1.74-.73,1.45-.31,3.65,1.4,3.82,2.71-.84,2.12-3.47,2.34-5.33,1.52Z"/>
</svg>