<?xml version="1.0" encoding="UTF-8"?>
<svg id="Layer_1" data-name="Layer 1" xmlns="http://www.w3.org/2000/svg" viewBox="0 0 438.63 37.67">
  <defs>
    <style>
      .cls-1 {
        fill: #66c6f0;
      }
    </style>
  </defs>
  <path class="cls-1" d="M14.71,28.93l-5.87-10.46v10.46H.93V5.05h9.43l7.72,13.23,7.73-13.23h9.46v23.88h-7.9v-10.53l-6.13,10.53h-6.53Z"/>
  <path class="cls-1" d="M39.18,24.24c-1.39-2.67-1.67-6.07-1.66-13.45v-5.74h8.37v10.68c0,2.92.66,6.65,7.13,6.65s6.94-3.73,6.94-6.65V5.05h8.37v5.74c0,7.38-.27,10.77-1.66,13.45-1.93,3.71-7.22,4.7-13.64,4.7s-11.91-.98-13.84-4.7Z"/>
  <path class="cls-1" d="M99.81,13.77h-8.44c0-1.26-.49-1.96-6.73-1.96s-6.55.29-6.55,1.17c.06.63.48.66,6.48,1.15,13.24,1.08,16.07,1.26,16.07,7.4s-2.3,7.4-15.97,7.4c-12.59,0-14.52-1.24-14.52-8.2h8.19c0,1.42.6,1.75,6.69,1.75,5.73,0,6.36.06,6.36-1.04,0-.76-.7-.62-6.95-1.13-9.69-.8-14.62-1.27-14.62-7.41,0-7.06,4.11-7.78,14.62-7.78,12.48,0,15.37,1.74,15.37,8.64Z"/>
  <path class="cls-1" d="M132.92,5.05v7.91h-11.8v15.97h-7.9v-15.97h-11.8v-7.91h31.51Z"/>
  <path class="cls-1" d="M161.73,28.93h-9.18l-1.8-4h-11.8l-1.8,4h-9.13l10.69-23.8h12.32l10.69,23.8ZM147.93,18.04l-3.08-6.23-3.08,6.23h6.15Z"/>
  <path class="cls-1" d="M179.61,5.05c2.26,0,10.28.32,10.28,9.16s-7.54,9.88-10.01,9.88h-9.11v4.84h-7.9V5.05h16.74ZM182.5,14.48c0-2.31-2.16-2.39-3.27-2.39h-8.45v4.97h8.58c1.21,0,3.13-.27,3.13-2.58Z"/>
  <path class="cls-1" d="M221.8,5.07v23.86h-7.91v-8.31h-14.21v8.31h-7.9V5.07h7.9v8.27h14.21V5.07h7.91Z"/>
  <path class="cls-1" d="M256.76,28.93h-9.18l-1.8-4h-11.8l-1.8,4h-9.13l10.69-23.8h12.32l10.69,23.8ZM242.96,18.04l-3.08-6.23-3.08,6.23h6.15Z"/>
  <path class="cls-1" d="M308.61,28.93h-9.18l-1.8-4h-11.8l-1.8,4h-9.13l10.69-23.8h12.32l10.69,23.8ZM294.81,18.04l-3.08-6.23-3.08,6.23h6.15Z"/>
  <path class="cls-1" d="M329.47,28.93c-3.33,0-13-.01-13-.01h0s-6.71,0-6.71,0V5.07l16.98-.02c6.51,0,8.68,2.14,8.68,5.99,0,2.4-.67,3.82-1.64,4.65,1.72.55,3.89,2.13,3.89,6.55s-1.63,6.69-8.2,6.69ZM317.7,13.97h8.93c.63,0,1.14-.51,1.14-1.14s-.51-1.14-1.14-1.14h-8.93v2.29ZM330.5,21.17c0-.65-.53-1.17-1.17-1.17h-11.63v2.35h11.63c.65,0,1.17-.53,1.17-1.17Z"/>
  <path class="cls-1" d="M339.54,28.93V5.13h16.32c6.93,0,13.56,1.72,13.56,11.9,0,9.2-7.33,11.9-13.48,11.9h-16.4ZM361.14,17.06c0-2.98-1.49-5.39-5.74-5.39h-7.95v10.79h7.95c3.85,0,5.74-2.42,5.74-5.39Z"/>
  <path class="cls-1" d="M400.99,28.93h-9.18l-1.8-4h-11.8l-1.8,4h-9.13l10.69-23.8h12.32l10.69,23.8ZM387.19,18.04l-3.08-6.23-3.08,6.23h6.15Z"/>
  <path class="cls-1" d="M427.35,21.03v7.9h-25.21V5.05h7.9v15.97h17.31Z"/>
  <path class="cls-1" d="M429.5,5.07h7.9v23.86h-7.9V5.07Z"/>
</svg>