<?xml version="1.0" encoding="UTF-8"?>
<svg id="Layer_1" data-name="Layer 1" xmlns="http://www.w3.org/2000/svg" viewBox="0 0 165.03 39.51">
  <defs>
    <style>
      .cls-1 {
        fill: #fff;
      }
    </style>
  </defs>
  <g>
    <path class="cls-1" d="M78.87,21.33c0-1.57.44-4.22,3.38-4.43.39-.03,1.46-.11,2.24-.13v8.12c-.54.36-1.37.63-2.3.66-.92.02-1.72-.26-2.25-.77-.71-.67-1.07-1.84-1.07-3.45M84.49,10.3v3.24h-2.08c-6.13,0-7.41,4.59-7.41,7.89,0,2.42.74,4.52,2.06,5.91,1.14,1.2,2.67,1.82,4.42,1.82,1.2,0,2.18-.22,3.01-.65l.03.32h4.05V10.3h-4.07Z"/>
    <path class="cls-1" d="M98.55,16.61c1.51,0,2.55,1.06,2.66,2.41h-5.71c.41-1.47,1.43-2.41,3.05-2.41M99.13,25.58c-2.18-.04-3.36-1.19-3.72-3.26h9.82v-.16c.02-1.39,0-2.55-.04-3.06-.16-1.74-.79-3.21-1.83-4.22-1.16-1.15-2.78-1.73-4.81-1.73-2.35,0-4.28.87-5.6,2.51-1.16,1.46-1.81,3.5-1.81,5.74,0,3.76,2.12,7.77,8.07,7.77,2.27,0,4.5-.71,5.77-1.33v-3.76c-.7.39-2.88,1.57-5.85,1.51"/>
    <path class="cls-1" d="M117.5,19.79v9.05h4.07v-9.65c0-4.04-1.87-6.01-5.71-6.01-1.32,0-2.77.5-3.33.7v-.33h-4.07v15.3h4.07v-11.45c.88-.56,2.25-.78,3.34-.53,1.09.26,1.63.95,1.63,2.93"/>
    <path class="cls-1" d="M156,22.6v-9.06h-4.07v9.66c0,4.04,1.86,6,5.71,6,1.32,0,2.78-.49,3.33-.7l.02.33h4.05v-15.3h-4.07v11.46c-.87.55-2.24.78-3.34.52-1.1-.25-1.63-.94-1.63-2.92"/>
    <path class="cls-1" d="M125.01,10.3v13.27c0,1.83.32,3.11,1,4.01.8,1.06,2.1,1.58,3.97,1.58,1.51,0,2.97-.34,3.81-.6v-3.67c-.52.14-2.13.48-3.06.48-.6,0-1.01-.12-1.27-.38-.37-.37-.37-1.02-.37-1.64v-6.47c1.61,0,3.6.12,4.71.23v-3.6h-4.71v-3.24h-4.07Z"/>
    <path class="cls-1" d="M148.47,21.42c-.81-1.12-2.06-1.71-4.37-2.13-.96-.19-2.08-.38-2.74-.74-.32-.18-.49-.42-.47-.69,0-.27.18-.52.45-.66.6-.32,1.67-.48,3.3-.19,1.57.29,3.3.9,3.85,1.13v-3.7c-1.89-.94-3.56-1.3-5.44-1.27-1.75.03-3.27.49-4.38,1.33-1.17.87-1.83,2.14-1.9,3.66-.12,2.53,1.48,4.05,5.15,4.77.77.15,1.87.37,2.35.57.48.19.75.51.76.87,0,.34-.24.66-.62.82-.69.29-1.8.24-2.52.17-2.1-.21-4.1-.95-4.84-1.29v3.8c1.24.63,3.2,1.36,5.52,1.32,2.67-.05,5.97-.84,6.57-4.35.22-1.3-.02-2.49-.68-3.41"/>
  </g>
  <path class="cls-1" d="M12.48,18.9H0V0h6.29v13.94h6.19v4.96ZM15.69,25.95c.5,1.18.75,2.55.75,4.1s-.25,2.91-.75,4.1c-.5,1.18-1.23,2.17-2.18,2.96-.95.79-2.13,1.39-3.51,1.8-1.39.41-2.97.61-4.75.61H0v-18.9h5.24c1.78,0,3.36.2,4.75.6,1.39.4,2.56.99,3.51,1.79.95.79,1.68,1.78,2.18,2.96ZM10.49,30.04c0-1.38-.39-2.4-1.16-3.06-.78-.66-1.87-.99-3.29-.99v8.13c1.42,0,2.51-.34,3.29-1.01.77-.67,1.16-1.7,1.16-3.07ZM18.14,39.51h11.34v-4.96h-5.3v-2.18h5.3v-4.7h-5.3v-2.1h5.3v-4.96h-11.34v18.9ZM40.2,27.83l-4.07-7.23h-4.96v18.9h5.92v-7.31l4.04,7.31h4.99v-18.9h-5.92v7.23ZM25.52,13.94h-5.3v-2.18h5.3v-4.7h-5.3v-2.1h5.3V0h-11.34v18.9h11.34v-4.96ZM46.12,9.45c0,5.22-4.23,9.45-9.45,9.45s-9.45-4.23-9.45-9.45S31.45,0,36.67,0s9.45,4.23,9.45,9.45ZM40.63,9.45c0-2.18-1.77-3.95-3.95-3.95s-3.95,1.77-3.95,3.95,1.77,3.95,3.95,3.95,3.95-1.77,3.95-3.95ZM51.78,31.6c-2.18,0-3.95,1.77-3.95,3.95s1.77,3.95,3.95,3.95,3.95-1.77,3.95-3.95-1.77-3.95-3.95-3.95Z"/>
  <rect class="cls-1" x="64.97" y="9.94" width=".78" height="19.62"/>
</svg>